<svg width="25px" height="25px" viewBox="0 0 25 25" role="img" xmlns="http://www.w3.org/2000/svg">
    <path d="M11.726 0.004c-0.385 0.01 -0.766 0.042 -1.146 0.099 -0.563 0.056 -1.125 0.339 -1.745 0.62 -0.789 0.338 -1.578 0.676 -2.31 0.732 -1.24 0.394 -1.633 0.957 -1.971 1.407 0 0.056 -0.056 0.113 -0.056 0.113 -0.451 0.901 -0.507 1.802 -0.339 2.703 0.169 0.564 0.394 1.072 0.563 1.578 0.396 1.071 0.79 2.083 0.958 3.267 0.17 0.339 0.338 0.789 0.45 1.24 0.281 0.901 0.565 1.915 1.409 2.703l0.006 -0.003c0.018 0.02 0.031 0.042 0.05 0.059l0.022 -0.01 -0.021 -0.608c0.675 -1.015 1.631 -1.691 2.983 -1.972 0.542 -0.115 1.126 -0.156 1.732 -0.133a9.139 9.139 0 0 1 1.873 0.246c1.521 0.394 2.703 1.183 2.76 1.859 0.028 0.369 0.042 0.724 0.033 1.079 0 0.067 -0.004 0.133 -0.007 0.201l0.142 0.071a0.666 0.666 0 0 0 0.215 -0.198l0.003 -0.003 0.006 -0.008c0.042 -0.056 0.078 -0.129 0.115 -0.202 0.021 -0.039 0.04 -0.09 0.058 -0.134 0.214 -0.481 0.377 -1.201 0.56 -2.045 0.056 -0.281 0.115 -0.507 0.17 -0.732 0.451 -1.014 1.07 -1.915 1.69 -2.76 1.014 -1.406 1.971 -2.703 1.858 -4.224 -1.858 -3.605 -4.45 -4.169 -5.802 -4.45 -0.225 -0.056 -0.336 -0.056 -0.505 -0.113 -1.394 -0.254 -2.598 -0.413 -3.755 -0.38zM16.979 14.982a10.271 10.271 0 0 0 -0.033 -1.024c-0.056 -0.732 -1.24 -1.521 -2.817 -1.915a9.933 9.933 0 0 0 -1.817 -0.246 7.043 7.043 0 0 0 -1.62 0.133c-1.296 0.281 -2.308 0.958 -2.928 1.971l0.053 1.491c0.695 -0.37 1.805 -0.91 3.271 -1.042 0.068 -0.005 0.142 -0.005 0.212 -0.009 0.122 -0.014 0.277 -0.046 0.463 -0.046 1.674 0 3.404 0.556 5.08 1.717 0.041 -0.285 0.063 -0.572 0.073 -0.857l0.047 0.024c0.002 -0.066 0.015 -0.132 0.016 -0.198zM11.725 0.06c0.129 -0.004 0.265 0.01 0.395 0.011 -0.24 -0.002 -0.478 0.003 -0.716 0.017 0.107 -0.006 0.214 -0.025 0.321 -0.028zm0.519 0.016zM10.875 0.135c-0.079 0.009 -0.159 0.014 -0.239 0.025 -0.851 0.122 -1.848 0.73 -2.865 1.089 0.37 -0.138 0.744 -0.308 1.12 -0.469 0.563 -0.281 1.182 -0.564 1.689 -0.62 0.098 -0.015 0.197 -0.014 0.295 -0.025zm-0.239 0.25c0.169 0 0.395 0 0.564 0.056a1.036 1.036 0 0 0 -0.385 -0.015 1.223 1.223 0 0 1 0.329 0.071c0.604 1.042 -0.444 5.499 -0.707 8.489a59.76 59.76 0 0 0 0.482 2.833c-0.732 -1.858 -1.465 -5.126 -1.578 -7.66 -0.056 -1.014 0.001 -1.916 0.227 -2.591C9.792 0.891 10.13 0.441 10.635 0.384zm3.267 0.281c-0.844 2.198 -0.956 6.365 -1.012 7.66 -0.056 0.563 0 1.802 0.056 2.703 0 0.225 0.056 0.45 0.056 0.676 0 -0.226 -0.056 -0.395 -0.056 -0.62 -0.451 -3.379 -1.015 -7.433 0.956 -10.419zm3.492 0.395c-0.281 2.252 -1.464 3.323 -1.857 5.521 -0.113 1.746 -0.339 3.773 -0.395 5.519 -0.056 -1.746 0 -3.604 0.281 -5.464 0.281 -1.915 0.901 -3.83 1.971 -5.576zM6.583 1.51zm0.219 0.205a0.892 0.892 0 0 1 0.625 0.246l-0.015 -0.007c0.139 0.096 0.277 0.218 0.409 0.4 -0.212 1.008 0.266 3.158 0.042 4.865 0.079 1.613 0.074 3.313 0.884 4.645 -1.021 -1.573 -1.225 -3.581 -1.377 -5.454 -0.118 -1.135 -0.212 -2.184 -0.483 -3.024 -0.15 -0.318 -0.28 -0.599 -0.4 -0.856 -0.025 -0.039 -0.046 -0.082 -0.073 -0.119a0.606 0.606 0 0 1 -0.169 -0.393c0 -0.056 0.055 -0.169 0.113 -0.169 0.056 -0.056 0.168 -0.058 0.224 -0.115a1.055 1.055 0 0 1 0.219 -0.019zm-1.403 0.639c-0.063 0.021 -0.096 0.043 -0.146 0.064 0.184 -0.035 0.377 0.035 0.542 0.331 -0.196 0.929 0.454 3.509 0.446 5.317 0.326 1.925 0.573 4.01 1.638 5.328 -1.24 -1.407 -1.746 -3.885 -2.14 -5.97 -0.339 -1.633 -0.621 -3.042 -1.183 -3.492 -0.056 -0.113 -0.113 -0.17 -0.113 -0.282 0 -0.169 0 -0.395 0.113 -0.62 -0.289 0.66 -0.422 1.32 -0.385 1.98a4.004 4.004 0 0 1 0.385 -1.98c0 -0.056 0.056 -0.056 0.056 -0.113 0.013 -0.017 0.032 -0.036 0.046 -0.053a0.915 0.915 0 0 1 0.235 -0.268c0.057 -0.064 0.1 -0.125 0.166 -0.19 -0.055 0.058 -0.092 0.115 -0.14 0.172 0.028 -0.019 0.054 -0.039 0.088 -0.054a0.51 0.51 0 0 1 0.393 -0.171zm-0.393 0.171c-0.004 0.007 -0.008 0.01 -0.013 0.019l0.039 -0.031 -0.026 0.013zm15.375 1.181 -0.005 0.016c0.04 -0.005 0.078 -0.018 0.118 -0.016 -0.039 -0.002 -0.079 0.01 -0.12 0.021 -0.899 2.752 -1.966 5.504 -3.032 8.256a0.019 0.019 0 0 1 -0.002 0.003c-0.091 0.484 -0.244 0.921 -0.563 1.24 0.451 -0.507 0.506 -1.241 0.563 -2.142 0.056 -0.845 0.056 -1.746 0.507 -2.648 0 -0.055 0.001 -0.109 0.055 -0.166l0.001 -0.002c0.101 -0.368 0.21 -0.718 0.33 -1.06 0.435 -1.344 1.188 -3.298 2.097 -3.479 0.017 -0.006 0.035 -0.02 0.052 -0.023zM8.723 16.885l-0.338 0.113c0.169 0.226 0.281 0.396 0.394 0.451a0.817 0.817 0 0 0 0.395 0.113c0.056 0 0.168 0 0.224 -0.056l0.846 -0.281c0.056 0 0.113 -0.056 0.169 -0.056 0.113 0 0.169 0 0.281 0.056l0.282 0.281 0.281 -0.056c-0.113 -0.169 -0.281 -0.336 -0.394 -0.393 -0.113 -0.056 -0.226 -0.115 -0.395 -0.115h-0.113l-0.902 0.339h-0.168c-0.114 0 -0.225 0 -0.281 -0.056 -0.056 -0.056 -0.17 -0.169 -0.282 -0.339zm-2.704 0.564c-0.281 0.169 -0.676 0.451 -1.24 0.676 -0.563 0.225 -1.014 0.451 -1.24 0.676 -0.224 0.225 -0.336 0.45 -0.336 0.676 0 0.113 0.056 0.17 0.169 0.226 0.056 0.056 0.17 0.056 0.226 0.113a29.063 29.063 0 0 1 2.308 1.125c0.114 0.056 0.226 0.17 0.283 0.226 0.056 0.056 0.111 0.056 0.168 0.056 0.114 0 0.281 -0.055 0.394 -0.169 0.113 -0.113 0.17 -0.226 0.17 -0.339 0 -0.113 -0.057 -0.168 -0.17 -0.224 0 0 -0.451 -0.226 -1.24 -0.564a12.466 12.466 0 0 1 -1.238 -0.62c0.169 -0.281 0.506 -0.507 1.014 -0.732 0.563 -0.225 0.958 -0.451 1.126 -0.62 0.056 -0.056 0.056 -0.113 0.056 -0.169a0.429 0.429 0 0 0 -0.113 -0.226 0.432 0.432 0 0 0 -0.281 -0.113zm11.716 0a0.425 0.425 0 0 0 -0.225 0.113c-0.056 0.113 -0.114 0.17 -0.114 0.226v0.056c0.169 0.169 0.396 0.281 0.733 0.394 0.281 0.056 0.563 0.17 0.845 0.226 0.338 0.113 0.563 0.281 0.676 0.506v0.057c0 0.056 -0.114 0.169 -0.339 0.281 -0.113 0.056 -0.339 0.226 -0.62 0.451 -0.281 0.169 -0.451 0.336 -0.62 0.393 -0.225 0.114 -0.394 0.226 -0.45 0.34 -0.056 0.056 -0.056 0.111 -0.056 0.168 0 0.113 0.056 0.113 0.113 0.225s0.169 0.115 0.225 0.115c0.056 0 0.113 -0.058 0.169 -0.058 0.281 -0.169 0.677 -0.394 1.127 -0.789 0.506 -0.394 0.901 -0.675 1.127 -0.844 0.225 -0.113 0.336 -0.226 0.336 -0.396 0 -0.055 0 -0.168 -0.113 -0.224 -0.394 -0.451 -0.956 -0.731 -1.632 -0.957 -0.113 -0.056 -0.281 -0.114 -0.62 -0.17 -0.169 -0.056 -0.339 -0.113 -0.451 -0.113zm-3.098 0.844c-0.281 0 -0.507 0.058 -0.676 0.227 -0.225 0.169 -0.281 0.45 -0.225 0.789 0 0.281 0.113 0.506 0.281 0.732 0.169 0.225 0.395 0.339 0.62 0.339 0.169 0 0.281 -0.058 0.451 -0.115 0.281 -0.169 0.395 -0.45 0.395 -0.956 0 -0.395 -0.114 -0.676 -0.282 -0.844a0.953 0.953 0 0 0 -0.564 -0.171zm-4.675 0.057c-0.281 0 -0.506 0.057 -0.675 0.226 -0.226 0.169 -0.281 0.45 -0.225 0.789 0 0.281 0.111 0.506 0.281 0.731s0.394 0.34 0.619 0.34c0.17 0 0.282 -0.058 0.451 -0.115 0.281 -0.169 0.394 -0.45 0.394 -0.956 0 -0.451 -0.113 -0.732 -0.281 -0.844a0.953 0.953 0 0 0 -0.563 -0.171zm0 0.677c0.17 0 0.282 0.113 0.282 0.281 0 0.169 -0.17 0.281 -0.281 0.281 -0.17 0 -0.281 -0.113 -0.281 -0.281s0.111 -0.281 0.281 -0.281zm4.563 0.056c0.169 0 0.282 0.111 0.282 0.281 0 0.113 -0.114 0.281 -0.281 0.281 -0.17 0 -0.281 -0.113 -0.281 -0.281 0 -0.17 0.111 -0.281 0.281 -0.281zm-2.816 2.196 0.169 0.338a0.986 0.986 0 0 0 0.225 0.282c0.056 0.056 0.17 0.169 0.281 0.169h0.114c0.113 0 0.168 0 0.224 -0.056 0.056 -0.056 0.171 -0.056 0.227 -0.113l0.168 -0.169c0.056 -0.056 0.113 -0.114 0.113 -0.17 0.056 -0.056 0.056 -0.113 0.113 -0.169 0 -0.056 0.056 -0.113 0.056 -0.113 -0.056 0.113 -0.169 0.225 -0.225 0.338 -0.113 0.056 -0.168 0.17 -0.281 0.17 -0.111 0.056 -0.225 0.056 -0.338 0.056s-0.225 0 -0.281 -0.056c-0.113 0 -0.17 -0.056 -0.226 -0.113l-0.169 -0.17c-0.056 -0.056 -0.113 -0.169 -0.169 -0.225zm-0.902 1.071c-1.183 0 -1.915 1.577 -3.604 0.169 -0.45 2.76 2.873 2.985 4.281 1.802 0.958 -0.844 0.675 -2.027 -0.677 -1.971zm2.985 0c-1.351 -0.056 -1.633 1.127 -0.675 1.972 1.407 1.182 4.729 0.956 4.279 -1.803 -1.69 1.408 -2.365 -0.169 -3.604 -0.169z"/>
</svg>