<svg width="25px" height="25px" viewBox="0 0 25 25" xmlns="http://www.w3.org/2000/svg">
    <path d="M18.04 0.08C19.308 0.138 20.185 0.325 20.996 0.64C21.808 0.955 22.423 1.355 23.034 1.966C23.645 2.577 24.044 3.192 24.36 4.004C24.675 4.815 24.862 5.692 24.92 6.96C24.991 8.533 25 9.087 25 12.5C25 15.913 24.991 16.467 24.92 18.04C24.862 19.308 24.675 20.185 24.36 20.996C24.044 21.808 23.645 22.423 23.034 23.034C22.423 23.645 21.808 24.044 20.996 24.36C20.185 24.675 19.308 24.862 18.04 24.92C16.467 24.991 15.913 25 12.5 25C9.087 25 8.533 24.991 6.96 24.92C5.692 24.862 4.815 24.675 4.004 24.36C3.192 24.044 2.577 23.645 1.966 23.034C1.355 22.423 0.955 21.808 0.64 20.996C0.325 20.185 0.138 19.308 0.08 18.04C0.009 16.468 0 15.914 0 12.5C0 9.086 0.009 8.532 0.08 6.96C0.138 5.692 0.325 4.815 0.64 4.004C0.955 3.192 1.355 2.577 1.966 1.966C2.577 1.355 3.192 0.956 4.004 0.64C4.815 0.325 5.692 0.138 6.96 0.08C8.532 0.009 9.086 0 12.5 0C15.914 0 16.468 0.009 18.04 0.08ZM12.5 2.778C9.125 2.778 8.608 2.786 7.087 2.855C6.121 2.899 5.541 3.023 5.01 3.229C4.556 3.405 4.268 3.593 3.93 3.931C3.593 4.268 3.405 4.556 3.229 5.01C3.023 5.541 2.899 6.121 2.855 7.087C2.786 8.608 2.778 9.125 2.778 12.5C2.778 15.875 2.786 16.392 2.855 17.913C2.899 18.879 3.023 19.459 3.229 19.99C3.405 20.444 3.593 20.732 3.931 21.07C4.268 21.407 4.556 21.595 5.01 21.771C5.541 21.977 6.121 22.101 7.087 22.145C8.609 22.214 9.126 22.222 12.5 22.222C15.874 22.222 16.391 22.214 17.913 22.145C18.879 22.101 19.459 21.977 19.99 21.771C20.444 21.595 20.732 21.407 21.07 21.069C21.407 20.732 21.595 20.444 21.771 19.99C21.977 19.459 22.101 18.879 22.145 17.913C22.214 16.391 22.222 15.874 22.222 12.5C22.222 9.126 22.214 8.609 22.145 7.087C22.101 6.121 21.977 5.541 21.771 5.01C21.595 4.556 21.407 4.268 21.07 3.93C20.732 3.593 20.444 3.405 19.99 3.229C19.459 3.023 18.879 2.899 17.913 2.855C16.392 2.786 15.875 2.778 12.5 2.778ZM12.5 18.981C8.92 18.981 6.019 16.08 6.019 12.5C6.019 8.92 8.92 6.019 12.5 6.019C16.08 6.019 18.981 8.92 18.981 12.5C18.981 16.08 16.08 18.981 12.5 18.981ZM12.5 16.204C14.545 16.204 16.204 14.545 16.204 12.5C16.204 10.455 14.545 8.796 12.5 8.796C10.455 8.796 8.796 10.455 8.796 12.5C8.796 14.545 10.455 16.204 12.5 16.204ZM18.981 7.407C18.214 7.407 17.593 6.786 17.593 6.019C17.593 5.251 18.214 4.63 18.981 4.63C19.749 4.63 20.37 5.251 20.37 6.019C20.37 6.786 19.749 7.407 18.981 7.407Z"/>
</svg>