<svg width="25px" height="25px" viewBox="0 0 25 25" xmlns="http://www.w3.org/2000/svg">
    <path d="M16.773 18.677l-2.809 2.713c-0.487 0.488 -1.159 0.691 -1.9 0.691s-1.412 -0.203 -1.9 -0.691l-4.513 -4.541c-0.484 -0.488 -0.732 -1.201 -0.732 -1.941 0 -0.744 0.248 -1.416 0.732 -1.9l4.5 -4.566c0.484 -0.484 1.172 -0.671 1.912 -0.671s1.413 0.203 1.9 0.691l2.809 2.713c0.537 0.537 1.424 0.518 1.981 -0.041 0.553 -0.557 0.574 -1.444 0.037 -1.981l-2.713 -2.743c-0.704 -0.696 -1.587 -1.176 -2.548 -1.396l2.568 -2.604c0.537 -0.537 0.521 -1.424 -0.037 -1.981s-1.445 -0.574 -1.981 -0.041l-10.523 10.523c-1.021 1.025 -1.554 2.432 -1.554 3.995 0 1.559 0.534 3.016 1.554 4.038l4.529 4.541c1.021 1.021 2.434 1.513 3.996 1.513 1.559 0 2.97 -0.534 3.991 -1.554l2.718 -2.751c0.537 -0.534 0.516 -1.42 -0.041 -1.977s-1.445 -0.578 -1.977 -0.041zM21.679 13.554h-10.571c-0.728 0 -1.322 0.626 -1.322 1.399 0 0.774 0.594 1.404 1.322 1.404h10.571c0.729 0 1.323 -0.63 1.323 -1.404 0 -0.773 -0.594 -1.399 -1.323 -1.399z"/>
</svg>