<svg width="25px" height="25px" viewBox="0 0 25 25" xmlns="http://www.w3.org/2000/svg">
    <path d="M21.297 21.305h-3.698v-5.802c0 -1.384 -0.029 -3.162 -1.934 -3.162 -1.928 0 -2.222 1.501 -2.222 3.059v5.904h-3.702v-11.93h3.556v1.627h0.048c0.497 -0.94 1.705 -1.928 3.509 -1.928 3.751 0 4.447 2.47 4.447 5.68v6.551zM5.559 7.744c-1.193 0 -2.149 -0.965 -2.149 -2.153 0 -1.184 0.96 -2.148 2.149 -2.148s2.152 0.963 2.152 2.148c0 1.188 -0.963 2.153 -2.152 2.153zM7.413 21.305h-3.71v-11.93h3.71zM23.153 0h-21.309c-1.018 0 -1.844 0.805 -1.844 1.802v21.396c0 0.997 0.826 1.802 1.844 1.802h21.305c1.016 0 1.851 -0.805 1.851 -1.802v-21.396c0 -0.997 -0.834 -1.802 -1.851 -1.802z"/>
</svg>